<svg width="48" height="48" viewBox="0 0 48 48" fill="none" xmlns="http://www.w3.org/2000/svg">
<rect width="48" height="48" fill="#323238"/>
<g clip-path="url(#clip0_61385_125)">
<path d="M36.6849 16.8454C35.7604 17.236 34.7804 17.4936 33.777 17.6099C34.8352 17.0044 35.6271 16.0518 36.0049 14.9295C35.0116 15.4966 33.9235 15.8957 32.7883 16.1093C32.0949 15.3978 31.1931 14.9025 30.2008 14.6882C29.2085 14.4739 28.1716 14.5504 27.2254 14.9078C26.2793 15.2652 25.4678 15.8869 24.8969 16.6917C24.3259 17.4966 24.022 18.4472 24.0249 19.4196C24.0229 19.7917 24.0668 20.1627 24.1557 20.525C22.1397 20.4295 20.1674 19.9287 18.3677 19.0552C16.568 18.1817 14.9813 16.9551 13.7112 15.4557C13.0632 16.5232 12.8653 17.7866 13.158 18.9887C13.4506 20.1907 14.2117 21.2409 15.2861 21.9253C14.4786 21.9062 13.6883 21.6984 12.9842 21.3201V21.3803C12.9836 22.4996 13.3886 23.5845 14.1302 24.4508C14.8718 25.3171 15.9044 25.9112 17.0524 26.1322C16.6174 26.2449 16.1688 26.3021 15.7181 26.3021C15.3986 26.3027 15.0798 26.2726 14.7665 26.2124C15.0901 27.1751 15.7205 28.017 16.5695 28.6202C17.4184 29.2235 18.4435 29.5581 19.5012 29.577C17.7066 30.9253 15.489 31.6563 13.2064 31.6521C12.8025 31.6517 12.399 31.6284 11.998 31.5825C14.3046 33.0171 16.9986 33.778 19.7505 33.7721C21.6488 33.7848 23.5308 33.4367 25.2872 32.7481C27.0435 32.0595 28.6391 31.0441 29.9812 29.7609C31.3233 28.4776 32.3851 26.9522 33.105 25.2733C33.8248 23.5944 34.1884 21.7955 34.1744 19.9811C34.1744 19.7711 34.1744 19.5611 34.1584 19.3559C35.1498 18.6691 36.0054 17.819 36.6849 16.8454V16.8454Z" fill="white"/>
</g>
<defs>
<clipPath id="clip0_61385_125">
<rect width="24.6857" height="19.2" fill="white" transform="translate(12 14.5712)"/>
</clipPath>
</defs>
</svg>
